<svg width="22" height="20" viewBox="0 0 22 20" fill="none" xmlns="http://www.w3.org/2000/svg">
<path d="M1.52998 17.65L2.86998 18.21V9.18L0.439977 15.04C0.0299771 16.06 0.519977 17.23 1.52998 17.65ZM21.03 13.95L16.07 1.98C15.76 1.23 15.03 0.77 14.26 0.75C14 0.75 13.73 0.79 13.47 0.9L6.09998 3.95C5.34998 4.26 4.88998 4.98 4.86998 5.75C4.85998 6.02 4.90998 6.29 5.01998 6.55L9.97998 18.52C10.29 19.28 11.03 19.74 11.81 19.75C12.07 19.75 12.33 19.7 12.58 19.6L19.94 16.55C20.96 16.13 21.45 14.96 21.03 13.95ZM6.87998 6.75C6.32998 6.75 5.87998 6.3 5.87998 5.75C5.87998 5.2 6.32998 4.75 6.87998 4.75C7.42998 4.75 7.87998 5.2 7.87998 5.75C7.87998 6.3 7.42998 6.75 6.87998 6.75ZM4.87998 17.75C4.87998 18.85 5.77998 19.75 6.87998 19.75H8.32998L4.87998 11.41V17.75Z" fill="#757575"/>
</svg>
