<svg width="24" height="24" viewBox="0 0 24 24" fill="none" xmlns="http://www.w3.org/2000/svg">
<path opacity="0.1" d="M19.0636 7.19686L19.0582 18.221C19.0582 18.7344 18.6399 19.155 18.1305 19.155H1.14625C0.636797 19.155 0.218506 18.7344 0.218506 18.221V1.03654C0.218506 0.523114 0.636797 0.102539 1.14625 0.102539H12.4861C12.9956 0.102539 13.4139 0.523114 13.4139 1.03654V3.80316C13.4139 4.84095 14.2022 5.66571 15.2425 5.66571H18.1358C18.6453 5.66571 19.0636 6.08628 19.0636 6.59971V7.19686Z" fill="#F4511E"/>
<path d="M23.479 7.20034L19.186 2.86612C19.0252 2.70226 18.8053 2.60941 18.5801 2.60941H16.8962H4.4945C3.55067 2.60941 2.79453 3.38501 2.79453 4.34086V22.0824C2.79453 23.0383 3.55603 23.8139 4.4945 23.8139H22.0203C22.9642 23.8139 23.715 23.0492 23.7203 22.1043L23.7364 7.81755C23.731 7.5936 23.6399 7.36966 23.479 7.20034ZM18.4621 3.76735L22.4333 7.80662C22.5995 7.97594 22.4815 8.25997 22.2509 8.25997H19.0681C18.4889 8.25997 18.017 7.77931 18.017 7.18941V3.95306C18.017 3.71273 18.3012 3.59803 18.4621 3.76735ZM22.6853 10.7524L22.68 21.7766C22.68 22.29 22.2617 22.7106 21.7522 22.7106H4.768C4.25854 22.7106 3.84025 22.29 3.84025 21.7766V4.59212C3.84025 4.07869 4.25854 3.65811 4.768 3.65811H16.1079C16.6173 3.65811 17.0356 4.07869 17.0356 4.59212V7.35874C17.0356 8.39652 17.8239 9.22128 18.8643 9.22128H21.7576C22.267 9.22128 22.6853 9.64186 22.6853 10.1553V10.7524Z" fill="#F4511E"/>
<path d="M15.5272 14.8005C15.176 14.5936 14.8138 14.3701 14.5284 14.1018C13.7656 13.3751 13.1289 12.3634 12.7338 11.2622C12.7612 11.156 12.7832 11.0666 12.8052 10.9716C12.8052 10.9716 13.2332 8.48419 13.1235 7.64015C13.107 7.52277 13.096 7.49482 13.0686 7.3998L13.0302 7.29919C12.9149 7.02529 12.6844 6.70668 12.3222 6.71786L12.1137 6.68433H12.1082C11.7076 6.68433 11.3783 6.91909 11.296 7.2377C11.0325 8.21588 11.3069 9.69154 11.7899 11.592L11.6691 11.9106C11.3234 12.777 10.8789 13.6546 10.4947 14.4204L10.4453 14.5266C10.0392 15.3371 9.66602 16.0246 9.33674 16.6059L8.99648 16.7904C8.96904 16.8015 8.38183 17.1257 8.23914 17.204C7.06471 17.9195 6.28541 18.73 6.1537 19.3784C6.1098 19.5852 6.14272 19.8479 6.35127 19.9653L6.68604 20.133C6.82872 20.2112 6.98239 20.2448 7.14154 20.2448C7.97572 20.2448 8.95258 19.1827 10.2916 16.8071C11.8393 16.2929 13.6009 15.8681 15.143 15.6333C16.3175 16.3041 17.7663 16.7736 18.6828 16.7736C18.8419 16.7736 18.9846 16.7568 19.0999 16.7233C19.2755 16.6786 19.4237 16.578 19.5115 16.4382C19.6871 16.1643 19.7255 15.7954 19.6761 15.4041C19.6597 15.2868 19.5718 15.147 19.4786 15.0576C19.2096 14.7837 18.606 14.644 17.695 14.6328C17.0583 14.6328 16.312 14.6887 15.5272 14.8005ZM6.95495 19.6131C7.10861 19.1883 7.71229 18.3443 8.60683 17.6009C8.6672 17.5561 8.79891 17.422 8.93063 17.299C7.99218 18.8138 7.36655 19.4231 6.95495 19.6131ZM12.2509 7.19298C12.5198 7.19298 12.6734 7.8861 12.6844 8.5289C12.6954 9.1773 12.5527 9.63006 12.3606 9.97103C12.207 9.47355 12.1356 8.691 12.1356 8.17676C12.1356 8.17676 12.1246 7.19298 12.2509 7.19298ZM10.6703 16.0414C10.8569 15.6948 11.049 15.3371 11.252 14.957C11.7405 14.0235 12.0478 13.2857 12.2783 12.6876C12.7338 13.526 13.2991 14.2415 13.9686 14.8228C14.0509 14.8955 14.1387 14.9626 14.232 15.0352C12.8655 15.3035 11.6966 15.6389 10.6703 16.0414ZM18.798 15.5327C19.281 15.6557 19.2865 15.9072 19.2042 15.9631C19.1218 16.019 18.8858 16.0469 18.7322 16.0469C18.2438 16.0469 17.6346 15.8178 16.7894 15.4489C17.1187 15.4209 17.4151 15.4097 17.684 15.4097C18.1724 15.4097 18.3151 15.4097 18.798 15.5327Z" fill="#F4511E"/>
</svg>
