<svg width="24" height="24" viewBox="0 0 24 24" fill="none" xmlns="http://www.w3.org/2000/svg">
<path d="M23.39 7.20034L19.2477 2.86612C19.0924 2.70226 18.8803 2.60941 18.6629 2.60941H17.0381H5.0716C4.16088 2.60941 3.43127 3.38501 3.43127 4.34086V22.0824C3.43127 23.0383 4.16606 23.8139 5.0716 23.8139H21.9825C22.8932 23.8139 23.6177 23.0492 23.6228 22.1043L23.6384 7.81754C23.6332 7.5936 23.5452 7.36966 23.39 7.20034ZM18.5491 3.76735L22.3809 7.80662C22.5413 7.97594 22.4275 8.25997 22.205 8.25997H19.1338C18.575 8.25997 18.1196 7.77931 18.1196 7.18941V3.95306C18.1196 3.71273 18.3939 3.59803 18.5491 3.76735ZM22.6241 12.5302H11.4368C11.0797 12.5302 10.79 12.8361 10.79 13.213V17.4897C10.79 17.8666 11.0797 18.1725 11.4368 18.1725H22.619V21.7766C22.619 22.29 22.2154 22.7106 21.7238 22.7106H5.33551C4.84392 22.7106 4.44031 22.29 4.44031 21.7766V4.59212C4.44031 4.07869 4.84392 3.65811 5.33551 3.65811H16.2775C16.769 3.65811 17.1727 4.07869 17.1727 4.59212V7.35874C17.1727 8.39652 17.9333 9.22128 18.9372 9.22128H21.7289C22.2205 9.22128 22.6241 9.64186 22.6241 10.1553V12.5302Z" fill="black" fill-opacity="0.54"/>
<path fill-rule="evenodd" clip-rule="evenodd" d="M18.36 13.9337H19.8123V15.4667H18.36V13.9337ZM15.4555 13.9337H16.9078V15.4667H15.4555V13.9337ZM21.2646 13.9337H22.7169V15.4667H21.2646V13.9337ZM19.8123 15.4667H21.2646V16.9996H19.8123V15.4667ZM16.9078 15.4667H18.36V16.9996H16.9078V15.4667ZM12.5509 13.9337H14.0032V15.4667H12.5509V13.9337ZM14.0032 15.4667H15.4555V16.9996H14.0032V15.4667Z" fill="white"/>
<path opacity="0.1" d="M18.8996 7.19686L18.8945 18.221C18.8945 18.7344 18.4909 19.155 17.9993 19.155H1.27417C0.782589 19.155 0.378975 18.7344 0.378975 18.221V1.03654C0.378975 0.523114 0.782589 0.102539 1.27417 0.102539H12.553C13.0446 0.102539 13.4482 0.523114 13.4482 1.03654V3.80316C13.4482 4.84095 14.2088 5.66571 15.2127 5.66571H18.0045C18.496 5.66571 18.8996 6.08628 18.8996 6.59971V7.19686Z" fill="black" fill-opacity="0.54"/>
</svg>
