<svg xmlns="http://www.w3.org/2000/svg">
<defs>
<font
       id="font3429"
       horiz-adv-x="1229">
      <font-face
         id="font-face3431"
         alphabetic="0"
         descent="615"
         ascent="1705"
         panose-1="2 7 3 9 2 2 5 2 4 4"
         units-per-em="2048"
         font-family="Courier New" />
      <missing-glyph
         id="missing-glyph3433"
         d="M 103,0 l 0,1280 1024,0 0,-1280 -1024,0 z m 32,32 l 960,0 0,1216 -960,0 0,-1216 z" />
      <glyph
         id="glyph3435"
         unicode=" " />
      <glyph
         id="glyph3437"
         d="M 1026,1255 l 0,-1171 112,0 q 31,0 44,-11.5 13,-11.5 13,-30.5 0,-18 -13,-30 -13,-12 -44,-12 l -197,0 0,167 q -146,-200 -371,-200 -114,0 -218.5,60.5 -104.5,60.5 -165,172.5 -60.5,112 -60.5,231 0,120 60.5,231.5 60.5,111.5 165,172.5 104.5,61 219.5,61 220,0 370,-200 l 0,474 -112,0 q -31,0 -44,12 -13,12 -13,31 0,18 13,30 13,12 44,12 l 197,0 z m -85,-824 q 0,160 -108,270 -108,110 -257,110 -150,0 -258,-110 -108,-110 -108,-270 0,-159 108,-269.5 108,-110.5 258,-110.5 149,0 257,110.5 108,110.5 108,269.5 z"
         unicode="d" />
      <glyph
         id="glyph3439"
         d="M 1069,413 l -856,0 q 22,-163 136.5,-262.5 114.5,-99.5 283.5,-99.5 94,0 197,31 103,31 168,82 19,15 33,15 16,0 28,-12.5 12,-12.5 12,-29.5 0,-17 -16,-33 -48,-50 -170.5,-93.5 -122.5,-43.5 -251.5,-43.5 -216,0 -360.5,141.5 -144.5,141.5 -144.5,342.5 0,183 135.5,314 135.5,131 335.5,131 206,0 339,-134.5 133,-134.5 131,-348.5 z m -85,85 q -25,139 -131.5,226 -106.5,87 -253.5,87 -147,0 -253,-86 -106,-86 -132,-227 l 770,0 z"
         unicode="e" />
      <glyph
         id="glyph3441"
         d="M 559,781 l 0,-697 369,0 q 30,0 43,-11.5 13,-11.5 13,-30.5 0,-18 -13,-30 -13,-12 -43,-12 l -657,0 q -30,0 -43,12 -13,12 -13,30 0,19 13,30.5 13,11.5 43,11.5 l 203,0 0,697 -182,0 q -30,0 -43,12 -13,12 -13,31 0,18 13,30 13,12 43,12 l 182,0 0,127 q 0,106 86,184 86,78 228,78 119,0 254,-22 51,-8 61.5,-19 10.5,-11 10.5,-29 0,-18 -12,-29.5 -12,-11.5 -32,-11.5 -8,0 -27,3 -151,23 -255,23 -110,0 -169.5,-54 -59.5,-54 -59.5,-123 l 0,-127 393,0 q 30,0 43,-12 13,-12 13,-31 0,-18 -13,-30 -13,-12 -43,-12 l -393,0 z"
         unicode="f" />
      <glyph
         id="glyph3443"
         d="M 338,1255 l 0,-517 q 80,87 153.5,122.5 73.5,35.5 164.5,35.5 98,0 166.5,-34.5 68.5,-34.5 114.5,-106 46,-71.5 46,-150.5 l 0,-521 94,0 q 31,0 43.5,-11.5 12.5,-11.5 12.5,-30.5 0,-18 -12.5,-30 -12.5,-12 -43.5,-12 l -273,0 q -31,0 -44,12 -13,12 -13,30 0,19 13,30.5 13,11.5 44,11.5 l 94,0 0,515 q 0,91 -65.5,152 -65.5,61 -182.5,61 -92,0 -157,-45 -47,-32 -155,-151 l 0,-532 95,0 q 30,0 43,-11.5 13,-11.5 13,-30.5 0,-18 -13,-30 -13,-12 -43,-12 l -274,0 q -30,0 -43,12 -13,12 -13,30 0,19 13,30.5 13,11.5 43,11.5 l 95,0 0,1086 -113,0 q -30,0 -43,12 -13,12 -13,31 0,18 13,30 13,12 43,12 l 197,0 z"
         unicode="h" />
      <glyph
         id="glyph3445"
         d="M 656,1297 l 0,-217 -124,0 0,217 124,0 z m 3,-431 l 0,-782 330,0 q 31,0 44,-11.5 13,-11.5 13,-30.5 0,-18 -13,-30 -13,-12 -44,-12 l -744,0 q -30,0 -43,12 -13,12 -13,30 0,19 13,30.5 13,11.5 43,11.5 l 330,0 0,697 -245,0 q -30,0 -43.5,12 -13.5,12 -13.5,30 0,19 13,31 13,12 44,12 l 329,0 z"
         unicode="i" />
      <glyph
         id="glyph3447"
         d="M 442,866 l 456,0 q 30,0 43,-12 13,-12 13,-31 0,-18 -13,-30 -13,-12 -43,-12 l -456,0 0,-559 q 0,-73 58.5,-122 58.5,-49 171.5,-49 85,0 184,25.5 99,25.5 154,57.5 20,13 33,13 16,0 28,-12.5 12,-12.5 12,-29.5 0,-15 -13,-28 -32,-33 -155.5,-71.5 -123.5,-38.5 -236.5,-38.5 -147,0 -234,69 -87,69 -87,186 l 0,559 -155,0 q -30,0 -43,12 -13,12 -13,31 0,18 13,30 13,12 43,12 l 155,0 0,248 q 0,30 12,43 12,13 30,13 19,0 31,-13 12,-13 12,-43 l 0,-248 z"
         unicode="t" />
      <glyph
         id="glyph3449"
         d="M 904,0 l -104,-1 -185,540 -184,-540 -104,1 -174,781 -41,0 q -30,0 -43,12 -13,12 -13,31 0,18 13,30 13,12 43,12 l 231,0 q 30,0 43,-12 13,-12 13,-31 0,-18 -13,-30 -13,-12 -43,-12 l -107,0 149,-666 179,532 100,0 184,-532 143,666 -106,0 q -30,0 -43.5,12 -13.5,12 -13.5,31 0,18 13,30 13,12 44,12 l 230,0 q 31,0 44,-12 13,-12 13,-31 0,-18 -13,-30 -13,-12 -44,-12 l -40,0 -171,-781 z"
         unicode="w" />
      <glyph
         id="glyph3451"
         d="M 672,453 l 385,-369 q 38,0 48,-3.5 10,-3.5 17.5,-14.5 7.5,-11 7.5,-24 0,-18 -13,-30 -13,-12 -44,-12 l -270,0 q -31,0 -44,12 -13,12 -13,30 0,19 13,30.5 13,11.5 44,11.5 l 139,0 -327,313 -325,-313 140,0 q 30,0 43,-11.5 13,-11.5 13,-30.5 0,-18 -13,-30 -13,-12 -43,-12 l -273,0 q -30,0 -43,12 -13,12 -13,30 0,13 7.5,24 7.5,11 17,14.5 9.5,3.5 47.5,3.5 l 385,369 -342,328 q -36,0 -45.5,4 -9.5,4 -17,15 -7.5,11 -7.5,24 0,18 13,30 13,12 44,12 l 229,0 q 31,0 43.5,-12 12.5,-12 12.5,-31 0,-18 -12.5,-30 -12.5,-12 -43.5,-12 l -100,0 283,-273 285,273 -100,0 q -30,0 -43.5,12 -13.5,12 -13.5,31 0,18 13,30 13,12 44,12 l 229,0 q 30,0 43,-12 13,-12 13,-31 0,-12 -7.5,-23 -7.5,-11 -17,-15 -9.5,-4 -45.5,-4 l -343,-328 z"
         unicode="x" />
    </font>
    <font
       id="font3389"
       horiz-adv-x="821">
      <font-face
         id="font-face3391"
         alphabetic="0"
         descent="443"
         ascent="1825"
         panose-1="2 2 6 3 5 4 5 2 3 4"
         units-per-em="2048"
         font-family="Times New Roman" />
      <missing-glyph
         id="missing-glyph3393"
         d="M 284,0 l 0,1280 1024,0 0,-1280 -1024,0 z m 32,32 l 960,0 0,1216 -960,0 0,-1216 z"
         horiz-adv-x="1593" />
      <glyph
         id="glyph3395"
         horiz-adv-x="512"
         unicode=" " />
      <glyph
         id="glyph3397"
         d="M 583,132 q -141,-109 -177,-126 -54,-25 -115,-25 -95,0 -156.5,65 -61.5,65 -61.5,171 0,67 30,116 41,68 142.5,128 101.5,60 337.5,146 l 0,36 q 0,137 -43.5,188 -43.5,51 -126.5,51 -63,0 -100,-34 -38,-34 -38,-78 l 2,-58 q 0,-46 -23.5,-71 -23.5,-25 -61.5,-25 -37,0 -60.5,26 -23.5,26 -23.5,71 0,86 88,158 88,72 247,72 122,0 200,-41 59,-31 87,-97 18,-43 18,-176 l 0,-311 q 0,-131 5,-160.5 5,-29.5 16.5,-39.5 11.5,-10 26.5,-10 16,0 28,7 21,13 81,73 l 0,-56 q -112,-150 -214,-150 -49,0 -78,34 -29,34 -30,116 z m 0,65 l 0,349 q -151,-60 -195,-85 -79,-44 -113,-92 -34,-48 -34,-105 0,-72 43,-119.5 43,-47.5 99,-47.5 76,0 200,100 z"
         horiz-adv-x="909"
         unicode="a" />
      <glyph
         id="glyph3399"
         d="M 218,571 q -1,-204 99,-320 100,-116 235,-116 90,0 156.5,49.5 66.5,49.5 111.5,169.5 l 31,-20 q -21,-137 -122,-249.5 -101,-112.5 -253,-112.5 -165,0 -282.5,128.5 -117.5,128.5 -117.5,345.5 0,235 120.5,366.5 120.5,131.5 302.5,131.5 154,0 253,-101.5 99,-101.5 99,-271.5 l -633,0 z m 0,58 l 424,0 q -5,88 -21,124 -25,56 -74.5,88 -49.5,32 -103.5,32 -83,0 -148.5,-64.5 -65.5,-64.5 -76.5,-179.5 z"
         horiz-adv-x="909"
         unicode="e" />
      <glyph
         id="glyph3401"
         d="M 422,844 l 0,-602 q 0,-128 28,-162 37,-44 99,-44 l 83,0 0,-36 -547,0 0,36 41,0 q 40,0 73,20 33,20 45.5,54 12.5,34 12.5,132 l 0,602 -178,0 0,72 178,0 0,60 q 0,137 44,232 44,95 134.5,153.5 90.5,58.5 203.5,58.5 105,0 193,-68 58,-45 58,-101 0,-30 -26,-56.5 -26,-26.5 -56,-26.5 -23,0 -48.5,16.5 -25.5,16.5 -62.5,71 -37,54.5 -68,73.5 -31,19 -69,19 -46,0 -78,-24.5 -32,-24.5 -46,-76 -14,-51.5 -14,-265.5 l 0,-66 236,0 0,-72 -236,0 z"
         horiz-adv-x="682"
         unicode="f" />
      <glyph
         id="glyph3403"
         d="M 309,334 q -84,41 -129,114.5 -45,73.5 -45,162.5 0,136 102.5,234 102.5,98 262.5,98 131,0 227,-64 l 194,0 q 43,0 50,-2.5 7,-2.5 10,-8.5 6,-9 6,-32 0,-26 -5,-36 -3,-5 -10.5,-8 -7.5,-3 -50.5,-3 l -119,0 q 56,-72 56,-184 0,-128 -98,-219 -98,-91 -263,-91 -68,0 -139,20 -44,-38 -59.5,-66.5 -15.5,-28.5 -15.5,-48.5 0,-17 16.5,-33 16.5,-16 64.5,-23 28,-4 140,-7 206,-5 267,-14 93,-13 148.5,-69 55.5,-56 55.5,-138 0,-113 -106,-212 -156,-146 -407,-146 -193,0 -326,87 -75,50 -75,104 0,24 11,48 17,37 70,103 7,9 102,108 -52,31 -73.5,55.5 -21.5,24.5 -21.5,55.5 0,35 28.5,82 28.5,47 131.5,133 z m 174,561 q -74,0 -124,-59 -50,-59 -50,-181 0,-158 68,-245 52,-66 132,-66 76,0 125,57 49,57 49,179 0,159 -69,249 -51,66 -131,66 z m -184,-895 q -47,-51 -71,-95 -24,-44 -24,-81 0,-48 58,-84 100,-62 289,-62 180,0 265.5,63.5 85.5,63.5 85.5,135.5 0,52 -51,74 -52,22 -206,26 -225,6 -346,23 z"
         horiz-adv-x="1024"
         unicode="g" />
      <glyph
         id="glyph3405"
         d="M 333,1422 l 0,-670 q 111,122 176,156.5 65,34.5 130,34.5 78,0 134,-43 56,-43 83,-135 19,-64 19,-234 l 0,-324 q 0,-87 14,-119 10,-24 34,-38 24,-14 88,-14 l 0,-36 -450,0 0,36 21,0 q 64,0 89,19.5 25,19.5 35,57.5 3,16 3,94 l 0,324 q 0,150 -15.5,197 -15.5,47 -49.5,70.5 -34,23.5 -82,23.5 -49,0 -102,-26 -53,-26 -127,-105 l 0,-484 q 0,-94 10.5,-117 10.5,-23 39,-38.5 28.5,-15.5 98.5,-15.5 l 0,-36 -454,0 0,36 q 61,0 96,19 20,10 32,38 12,28 12,114 l 0,829 q 0,157 -7.5,193 -7.5,36 -23,49 -15.5,13 -41.5,13 -21,0 -68,-16 l -14,35 274,112 46,0 z"
         horiz-adv-x="1024"
         unicode="h" />
      <glyph
         id="glyph3407"
         d="M 297,1422 q 42,0 71.5,-29.5 29.5,-29.5 29.5,-71.5 0,-42 -29.5,-72 -29.5,-30 -71.5,-30 -42,0 -72,30 -30,30 -30,72 0,42 29.5,71.5 29.5,29.5 72.5,29.5 z m 83,-479 l 0,-736 q 0,-86 12.5,-114.5 12.5,-28.5 37,-42.5 24.5,-14 89.5,-14 l 0,-36 -445,0 0,36 q 67,0 90,13 23,13 36.5,43 13.5,30 13.5,115 l 0,353 q 0,149 -9,193 -7,32 -22,44.5 -15,12.5 -41,12.5 -28,0 -68,-15 l -14,36 276,112 44,0 z"
         horiz-adv-x="569"
         unicode="i" />
      <glyph
         id="glyph3409"
         d="M 379,1422 l 0,-1215 q 0,-86 12.5,-114 12.5,-28 38.5,-42.5 26,-14.5 97,-14.5 l 0,-36 -449,0 0,36 q 63,0 86,13 23,13 36,43 13,30 13,115 l 0,832 q 0,155 -7,190.5 -7,35.5 -22.5,48.5 -15.5,13 -39.5,13 -26,0 -66,-16 l -17,35 273,112 45,0 z"
         horiz-adv-x="569"
         unicode="l" />
      <glyph
         id="glyph3411"
         d="M 336,748 q 100,100 118,115 45,38 97,59 52,21 103,21 86,0 148,-50 62,-50 83,-145 103,120 174,157.5 71,37.5 146,37.5 73,0 129.5,-37.5 56.5,-37.5 89.5,-122.5 22,-58 22,-182 l 0,-394 q 0,-86 13,-118 10,-22 37,-37.5 27,-15.5 88,-15.5 l 0,-36 -452,0 0,36 19,0 q 59,0 92,23 23,16 33,51 4,17 4,97 l 0,394 q 0,112 -27,158 -39,64 -125,64 -53,0 -106.5,-26.5 -53.5,-26.5 -129.5,-98.5 l -2,-11 2,-43 0,-437 q 0,-94 10.5,-117 10.5,-23 39.5,-38.5 29,-15.5 99,-15.5 l 0,-36 -463,0 0,36 q 76,0 104.5,18 28.5,18 39.5,54 5,17 5,99 l 0,394 q 0,112 -33,161 -44,64 -123,64 -54,0 -107,-29 -83,-44 -128,-99 l 0,-491 q 0,-90 12.5,-117 12.5,-27 37,-40.5 24.5,-13.5 99.5,-13.5 l 0,-36 -453,0 0,36 q 63,0 88,13.5 25,13.5 38,43 13,29.5 13,114.5 l 0,350 q 0,151 -9,195 -7,33 -22,45.5 -15,12.5 -41,12.5 -28,0 -67,-15 l -15,36 276,112 43,0 0,-195 z"
         horiz-adv-x="1593"
         unicode="m" />
      <glyph
         id="glyph3413"
         d="M 331,749 q 161,194 307,194 75,0 129,-37.5 54,-37.5 86,-123.5 22,-60 22,-184 l 0,-391 q 0,-87 14,-118 11,-25 35.5,-39 24.5,-14 90.5,-14 l 0,-36 -453,0 0,36 19,0 q 64,0 89.5,19.5 25.5,19.5 35.5,57.5 4,15 4,94 l 0,375 q 0,125 -32.5,181.5 -32.5,56.5 -109.5,56.5 -119,0 -237,-130 l 0,-483 q 0,-93 11,-115 14,-29 38.5,-42.5 24.5,-13.5 99.5,-13.5 l 0,-36 -453,0 0,36 20,0 q 70,0 94.5,35.5 24.5,35.5 24.5,135.5 l 0,340 q 0,165 -7.5,201 -7.5,36 -23,49 -15.5,13 -41.5,13 -28,0 -67,-15 l -15,36 276,112 43,0 0,-194 z"
         horiz-adv-x="1024"
         unicode="n" />
      <glyph
         id="glyph3415"
         d="M 512,943 q 208,0 334,-158 107,-135 107,-310 0,-123 -59,-249 -59,-126 -162.5,-190 -103.5,-64 -230.5,-64 -207,0 -329,165 -103,139 -103,312 0,126 62.5,250.5 62.5,124.5 164.5,184 102,59.5 216,59.5 z m -31,-65 q -53,0 -106.5,-31.5 -53.5,-31.5 -86.5,-110.5 -33,-79 -33,-203 0,-200 79.5,-345 79.5,-145 209.5,-145 97,0 160,80 63,80 63,275 0,244 -105,384 -71,96 -181,96 z"
         horiz-adv-x="1024"
         unicode="o" />
      <glyph
         id="glyph3417"
         d="M -2,825 l 282,114 38,0 0,-214 q 71,121 142.5,169.5 71.5,48.5 150.5,48.5 138,0 230,-108 113,-132 113,-344 0,-237 -136,-392 -112,-127 -282,-127 -74,0 -128,21 -40,15 -90,60 l 0,-279 q 0,-94 11.5,-119.5 11.5,-25.5 40,-40.5 28.5,-15 103.5,-15 l 0,-37 -480,0 0,37 25,0 q 55,-1 94,21 19,11 29.5,35.5 10.5,24.5 10.5,124.5 l 0,866 q 0,89 -8,113 -8,24 -25.5,36 -17.5,12 -47.5,12 -24,0 -61,-14 l -12,32 z m 320,-159 l 0,-342 q 0,-111 9,-146 14,-58 68.5,-102 54.5,-44 137.5,-44 100,0 162,78 81,102 81,287 0,210 -92,323 -64,78 -152,78 -48,0 -95,-24 -36,-18 -119,-108 z"
         horiz-adv-x="1024"
         unicode="p" />
      <glyph
         id="glyph3419"
         d="M 656,943 l 0,-312 -33,0 q -38,147 -97.5,200 -59.5,53 -151.5,53 -70,0 -113,-37 -43,-37 -43,-82 0,-56 32,-96 31,-41 126,-87 l 146,-71 q 203,-99 203,-261 0,-125 -94.5,-201.5 -94.5,-76.5 -211.5,-76.5 -84,0 -192,30 -33,10 -54,10 -23,0 -36,-26 l -33,0 0,327 33,0 q 28,-140 107,-211 79,-71 177,-71 69,0 112.5,40.5 43.5,40.5 43.5,97.5 0,69 -48.5,116 -48.5,47 -193.5,119 -145,72 -190,130 -45,57 -45,144 0,113 77.5,189 77.5,76 200.5,76 54,0 131,-23 51,-15 68,-15 16,0 25,7 9,7 21,31 l 33,0 z"
         horiz-adv-x="797"
         unicode="s" />
      <glyph
         id="glyph3421"
         d="M 330,1217 l 0,-301 214,0 0,-70 -214,0 0,-594 q 0,-89 25.5,-120 25.5,-31 65.5,-31 33,0 64,20.5 31,20.5 48,60.5 l 39,0 q -35,-98 -99,-147.5 -64,-49.5 -132,-49.5 -46,0 -90,25.5 -44,25.5 -65,73 -21,47.5 -21,146.5 l 0,616 -145,0 0,33 q 55,22 112.5,74.5 57.5,52.5 102.5,124.5 23,38 64,139 l 31,0 z"
         horiz-adv-x="569"
         unicode="t" />
      <glyph
         id="glyph3423"
         d="M 867,916 l 0,-555 q 0,-159 7.5,-194.5 7.5,-35.5 24,-49.5 16.5,-14 38.5,-14 31,0 70,17 l 14,-35 -274,-113 -45,0 0,194 q -118,-128 -180,-161 -62,-33 -131,-33 -77,0 -133.5,44.5 -56.5,44.5 -78.5,114.5 -22,70 -22,198 l 0,409 q 0,65 -14,90 -14,25 -41.5,38.5 -27.5,13.5 -99.5,12.5 l 0,37 321,0 0,-613 q 0,-128 44.5,-168 44.5,-40 107.5,-40 43,0 97.5,27 54.5,27 129.5,103 l 0,519 q 0,78 -28.5,105.5 -28.5,27.5 -118.5,29.5 l 0,37 312,0 z"
         horiz-adv-x="1024"
         unicode="u" />
      <glyph
         id="glyph3425"
         d="M 27,916 l 431,0 0,-37 q -41,0 -57.5,-14 -16.5,-14 -16.5,-37 0,-24 35,-74 11,-16 33,-50 l 65,-104 75,104 q 72,99 72,125 0,21 -17,35.5 -17,14.5 -55,14.5 l 0,37 310,0 0,-37 q -49,-3 -85,-27 -49,-34 -134,-148 l -125,-167 228,-328 q 84,-121 120,-145.5 36,-24.5 93,-27.5 l 0,-36 -432,0 0,36 q 45,0 70,20 19,14 19,37 0,23 -64,116 l -134,196 -147,-196 q -68,-91 -68,-108 0,-24 22.5,-43.5 22.5,-19.5 67.5,-21.5 l 0,-36 -299,0 0,36 q 36,5 63,25 38,29 128,148 l 192,255 -174,252 q -74,108 -114.5,135.5 -40.5,27.5 -101.5,27.5 l 0,37 z"
         horiz-adv-x="1024"
         unicode="x" />
      <glyph
         id="glyph3427"
         d="M 12,916 l 427,0 0,-37 -21,0 q -45,0 -67.5,-19.5 -22.5,-19.5 -22.5,-48.5 0,-39 33,-108 l 223,-462 205,506 q 17,41 17,81 0,18 -7,27 -8,11 -25,17.5 -17,6.5 -60,6.5 l 0,37 298,0 0,-37 q -37,-4 -57,-16 -20,-12 -44,-45 -9,-14 -34,-77 l -373,-914 q -54,-133 -141.5,-201 -87.5,-68 -168.5,-68 -59,0 -97,34 -38,34 -38,78 0,42 27.5,67.5 27.5,25.5 75.5,25.5 33,0 90,-22 40,-15 50,-15 30,0 65.5,31 35.5,31 71.5,120 l 65,159 -329,691 q -15,31 -48,77 -25,35 -41,47 -23,16 -74,28 l 0,37 z"
         horiz-adv-x="1024"
         unicode="y" />
    </font>
</defs>
</svg>
