<svg width="24" height="24" viewBox="0 0 24 24" fill="none" xmlns="http://www.w3.org/2000/svg">
<path opacity="0.1" d="M18.9695 1.56492V17.7096C18.9695 18.514 18.335 19.172 17.5594 19.172H1.64059C0.865009 19.172 0.230438 18.514 0.230438 17.7096V1.56492C0.230438 0.760612 0.865009 0.102539 1.64059 0.102539H17.5594C18.335 0.102539 18.9695 0.760612 18.9695 1.56492Z" fill="#FFB300"/>
<path d="M22.741 5.23186V21.3766C22.741 22.1809 22.1064 22.839 21.3308 22.839H5.41206C4.63647 22.839 4.0019 22.1809 4.0019 21.3766V5.23186C4.0019 4.42755 4.63647 3.76948 5.41206 3.76948H21.3308C22.1064 3.76948 22.741 4.42755 22.741 5.23186ZM5.41206 2.79456C4.11471 2.79456 3.0618 3.88647 3.0618 5.23186V21.3766C3.0618 22.722 4.11471 23.8139 5.41206 23.8139H21.3308C22.6282 23.8139 23.6811 22.722 23.6811 21.3766V5.23186C23.6811 3.88647 22.6282 2.79456 21.3308 2.79456H5.41206Z" fill="#FFB300"/>
<path d="M19.6461 18.1245H7.93307C7.697 18.1245 7.5014 17.9252 7.5014 17.6769V16.4563C7.5014 16.3619 7.52838 16.2745 7.57897 16.1975L9.08307 13.9942C9.21797 13.7983 9.47427 13.7494 9.66988 13.8788L11.7203 15.2672C11.8856 15.3791 12.0947 15.3616 12.243 15.2287L16.182 11.6195C16.3675 11.4481 16.6575 11.4761 16.8059 11.6825C16.8059 11.6825 19.8417 14.6132 19.899 14.6902C19.9563 14.7671 19.9901 14.865 19.9901 14.963C19.9901 15.0609 19.9901 17.7678 19.9901 17.7678C19.9901 17.9637 19.8349 18.1245 19.6461 18.1245ZM11.8754 10.3919C12.6578 10.3919 13.2919 11.0564 13.2919 11.8748C13.2919 12.6932 12.6578 13.3577 11.8754 13.3577C11.093 13.3577 10.459 12.6932 10.459 11.8748C10.4624 11.0564 11.0964 10.3919 11.8754 10.3919Z" fill="#FFB300"/>
</svg>
