<svg width="20" height="18" viewBox="0 0 20 18" fill="none" xmlns="http://www.w3.org/2000/svg">
<path d="M0.353259 8.34963L4.96166 10.0696L6.74539 15.8061C6.85953 16.1735 7.30879 16.3093 7.60699 16.0655L10.1758 13.9714C10.4451 13.752 10.8286 13.741 11.11 13.9453L15.7432 17.3091C16.0622 17.541 16.5141 17.3662 16.5941 16.9807L19.9882 0.654631C20.0755 0.233564 19.6618 -0.117702 19.2609 0.0373642L0.347859 7.33343C-0.118874 7.51343 -0.114808 8.17423 0.353259 8.34963ZM6.45793 9.15403L15.4645 3.6069C15.6263 3.5075 15.7929 3.72636 15.6539 3.8553L8.22086 10.7646C7.95959 11.0078 7.79106 11.3333 7.74333 11.6866L7.49013 13.563C7.45659 13.8135 7.10466 13.8384 7.03553 13.5959L6.06173 10.1742C5.95019 9.78397 6.11273 9.3671 6.45793 9.15403Z" fill="#42A5F5"/>
</svg>
