<svg width="24" height="24" viewBox="0 0 24 24" fill="none" xmlns="http://www.w3.org/2000/svg">
<path opacity="0.1" d="M18.809 7.19686L18.8037 18.221C18.8037 18.7344 18.3929 19.155 17.8925 19.155H1.21163C0.711275 19.155 0.300453 18.7344 0.300453 18.221V1.03654C0.300453 0.523114 0.711275 0.102539 1.21163 0.102539H12.349C12.8493 0.102539 13.2602 0.523114 13.2602 1.03654V3.80316C13.2602 4.84095 14.0344 5.66571 15.0562 5.66571H17.8978C18.3982 5.66571 18.809 6.08628 18.809 6.59971V7.19686Z" fill="#64B5F6"/>
<path d="M23.3599 7.20034L19.1436 2.86612C18.9856 2.70226 18.7697 2.60941 18.5485 2.60941H16.8947H4.71444C3.78746 2.60941 3.04482 3.38501 3.04482 4.34086V22.0824C3.04482 23.0383 3.79273 23.8139 4.71444 23.8139H21.9273C22.8543 23.8139 23.5917 23.0492 23.5969 22.1043L23.6127 7.81754C23.6075 7.5936 23.5179 7.36966 23.3599 7.20034ZM18.4326 3.76735L22.3329 7.80662C22.4961 7.97594 22.3803 8.25997 22.1538 8.25997H19.0278C18.4589 8.25997 17.9954 7.77931 17.9954 7.18941V3.95306C17.9954 3.71273 18.2746 3.59803 18.4326 3.76735ZM22.5804 10.7524L22.5752 21.7766C22.5752 22.29 22.1643 22.7106 21.664 22.7106H4.98306C4.4827 22.7106 4.07188 22.29 4.07188 21.7766V4.59212C4.07188 4.07869 4.4827 3.65811 4.98306 3.65811H16.1204C16.6208 3.65811 17.0316 4.07869 17.0316 4.59212V7.35873C17.0316 8.39652 17.8058 9.22128 18.8276 9.22128H21.6692C22.1696 9.22128 22.5804 9.64186 22.5804 10.1553V10.7524Z" fill="#64B5F6"/>
<path d="M16.8082 13.6931C16.4766 13.6931 16.2306 13.8151 16.0648 14.0536C15.8937 14.2976 15.8135 14.6526 15.8135 15.1296C15.8135 15.6065 15.8937 15.967 16.0595 16.2055C16.2253 16.4496 16.4713 16.566 16.8029 16.566C17.466 16.566 17.7923 16.0891 17.7923 15.1296C17.7869 14.1756 17.4607 13.6931 16.8082 13.6931Z" fill="#64B5F6"/>
<path d="M12.7276 13.7485H12.289V16.5217H12.6473C13.4442 16.5217 13.84 16.0558 13.84 15.1185C13.84 14.2033 13.4656 13.7485 12.7276 13.7485Z" fill="#64B5F6"/>
<path d="M10.754 12.3176C10.385 12.3176 10.0855 12.6282 10.0855 13.0109V17.3536C10.0855 17.7363 10.385 18.0469 10.754 18.0469H22.5841V12.3176H10.754ZM14.1501 16.7102C13.7811 17.0818 13.2516 17.2704 12.5671 17.2704H11.46V13.0054H12.6847C13.3211 13.0054 13.8185 13.1884 14.1715 13.56C14.5245 13.9316 14.701 14.4418 14.701 15.0963C14.6956 15.8007 14.5191 16.3386 14.1501 16.7102ZM18.1773 16.7602C17.8564 17.1428 17.3964 17.3259 16.7974 17.3259C16.1984 17.3259 15.7385 17.1373 15.4176 16.7602C15.0967 16.383 14.9363 15.8395 14.9363 15.124C14.9363 14.4141 15.0967 13.8761 15.4176 13.499C15.7385 13.1274 16.1984 12.9388 16.7974 12.9388C17.3964 12.9388 17.8564 13.1274 18.1773 13.5045C18.4928 13.8817 18.6532 14.4196 18.6532 15.1296C18.6586 15.8395 18.4981 16.3775 18.1773 16.7602ZM20.7337 16.5771C21.0064 16.5771 21.338 16.505 21.7284 16.3553V17.1151C21.4075 17.2593 21.0492 17.337 20.6588 17.337C20.0919 17.337 19.6533 17.1484 19.3539 16.7712C19.049 16.3941 18.9046 15.8561 18.9046 15.1517C18.9046 14.708 18.9795 14.3198 19.1292 13.987C19.279 13.6543 19.4876 13.3991 19.7657 13.2217C20.0438 13.0442 20.3647 12.9554 20.739 12.9554C21.1187 12.9554 21.4985 13.0553 21.8835 13.2549L21.6161 13.9926C21.4664 13.9205 21.3273 13.8484 21.1776 13.7929C21.0278 13.7375 20.8888 13.7097 20.7444 13.7097C20.4288 13.7097 20.1882 13.8373 20.0224 14.0924C19.8512 14.3475 19.7657 14.7025 19.7657 15.1573C19.755 16.1002 20.0759 16.5771 20.7337 16.5771Z" fill="#64B5F6"/>
</svg>
