<svg width="24" height="24" fill="none" xmlns="http://www.w3.org/2000/svg"><path opacity=".1" d="M19.064 7.197l-.006 11.024a.934.934 0 01-.927.934H1.146a.934.934 0 01-.927-.934V1.037c0-.514.418-.934.927-.934h11.34c.51 0 .928.42.928.934v2.766c0 1.038.788 1.863 1.829 1.863h2.893c.51 0 .928.42.928.934v.597z" fill="#F4511E"/><path d="M23.479 7.2l-4.293-4.334a.853.853 0 00-.606-.257H4.494c-.943 0-1.7.776-1.7 1.732v17.741c0 .956.762 1.732 1.7 1.732H22.02c.944 0 1.695-.765 1.7-1.71l.016-14.286a.937.937 0 00-.257-.618zm-5.017-3.433l3.971 4.04c.166.169.049.453-.182.453h-3.183c-.58 0-1.051-.48-1.051-1.07V3.952c0-.24.284-.355.445-.186zm4.223 6.985l-.005 11.025a.934.934 0 01-.928.934H4.768a.934.934 0 01-.928-.934V4.592c0-.513.419-.934.928-.934h11.34c.51 0 .928.42.928.934V7.36c0 1.038.788 1.862 1.828 1.862h2.894c.509 0 .927.42.927.934v.597z" fill="#F4511E"/><path d="M15.527 14.8c-.351-.206-.713-.43-.999-.698-.762-.727-1.4-1.739-1.794-2.84.027-.106.05-.195.071-.29 0 0 .428-2.488.319-3.332-.017-.117-.028-.145-.055-.24l-.039-.1c-.115-.275-.346-.593-.708-.582l-.208-.034h-.006c-.4 0-.73.235-.812.554-.263.978.01 2.454.494 4.354l-.12.319c-.347.866-.791 1.744-1.175 2.51l-.05.106c-.406.81-.779 1.498-1.108 2.079l-.34.184c-.028.012-.615.336-.758.414-1.174.715-1.954 1.526-2.085 2.174-.044.207-.011.47.197.587l.335.168a.933.933 0 00.456.112c.834 0 1.81-1.062 3.15-3.438a30.777 30.777 0 014.851-1.174c1.174.671 2.623 1.14 3.54 1.14.159 0 .302-.016.417-.05a.676.676 0 00.412-.285c.175-.274.213-.643.164-1.034a.673.673 0 00-.197-.346c-.27-.274-.873-.414-1.784-.425-.637 0-1.383.056-2.168.168zm-8.572 4.813c.154-.425.757-1.269 1.652-2.012.06-.045.192-.179.324-.302-.939 1.515-1.564 2.124-1.976 2.314zm5.296-12.42c.269 0 .422.693.433 1.336.011.648-.131 1.101-.323 1.442-.154-.497-.225-1.28-.225-1.794 0 0-.011-.984.115-.984zm-1.58 8.848l.581-1.084c.489-.934.796-1.671 1.026-2.27a7.61 7.61 0 001.69 2.136c.083.072.17.14.264.212-1.366.268-2.535.604-3.562 1.006zm8.127-.508c.483.123.489.374.406.43-.082.056-.318.084-.472.084-.488 0-1.097-.23-1.943-.598.33-.028.626-.04.895-.04.488 0 .631 0 1.114.124z" fill="#F4511E"/></svg>