<svg width="24" height="24" fill="none" xmlns="http://www.w3.org/2000/svg"><path d="M23.39 7.2l-4.142-4.334a.81.81 0 00-.585-.257H5.072c-.911 0-1.64.776-1.64 1.732v17.741c0 .956.734 1.732 1.64 1.732h16.91c.911 0 1.636-.765 1.64-1.71l.016-14.286a.955.955 0 00-.248-.618zm-4.84-3.433l3.83 4.04c.161.169.047.453-.175.453h-3.071c-.559 0-1.014-.48-1.014-1.07V3.952c0-.24.274-.355.43-.186zm4.074 8.763H11.437c-.357 0-.647.306-.647.683v4.277c0 .377.29.683.647.683h11.182v3.604c0 .513-.404.934-.895.934H5.336c-.492 0-.896-.421-.896-.934V4.592c0-.513.404-.934.896-.934h10.942c.491 0 .895.42.895.934V7.36c0 1.038.76 1.862 1.764 1.862h2.792c.492 0 .895.42.895.934v2.375z" fill="#000" fill-opacity=".54"/><path fill-rule="evenodd" clip-rule="evenodd" d="M18.36 13.934h1.452v1.533H18.36v-1.533zm-2.904 0h1.452v1.533h-1.453v-1.533zm5.809 0h1.452v1.533h-1.452v-1.533zm-1.453 1.533h1.453V17h-1.453v-1.533zm-2.904 0h1.452V17h-1.452v-1.533zm-4.357-1.533h1.452v1.533h-1.452v-1.533zm1.452 1.533h1.453V17h-1.453v-1.533z" fill="#fff"/><path opacity=".1" d="M18.9 7.197l-.005 11.024c0 .513-.404.934-.896.934H1.274c-.491 0-.895-.42-.895-.934V1.037c0-.514.404-.934.895-.934h11.279c.492 0 .895.42.895.934v2.766c0 1.038.76 1.863 1.765 1.863h2.792c.491 0 .895.42.895.934v.597z" fill="#000" fill-opacity=".54"/></svg>