<svg width="24" height="24" fill="none" xmlns="http://www.w3.org/2000/svg"><path opacity=".1" d="M18.97 1.565V17.71c0 .804-.635 1.462-1.41 1.462H1.64c-.775 0-1.41-.658-1.41-1.462V1.565C.23.76.865.103 1.64.103h15.92c.775 0 1.41.658 1.41 1.462z" fill="#FFB300"/><path d="M22.741 5.232v16.145c0 .804-.635 1.462-1.41 1.462H5.412c-.776 0-1.41-.658-1.41-1.462V5.232c0-.804.634-1.463 1.41-1.463h15.919c.775 0 1.41.659 1.41 1.463zM5.412 2.795c-1.297 0-2.35 1.091-2.35 2.437v16.145c0 1.345 1.053 2.437 2.35 2.437h15.919c1.297 0 2.35-1.092 2.35-2.437V5.232c0-1.346-1.053-2.437-2.35-2.437H5.412z" fill="#FFB300"/><path d="M19.646 18.125H7.933a.44.44 0 01-.432-.448v-1.22c0-.095.027-.183.078-.26l1.504-2.203a.422.422 0 01.587-.115l2.05 1.388a.42.42 0 00.523-.038l3.939-3.61a.416.416 0 01.624.063s3.036 2.931 3.093 3.008a.463.463 0 01.091.273v2.805a.352.352 0 01-.344.357zm-7.77-7.733c.782 0 1.416.664 1.416 1.483 0 .818-.634 1.483-1.417 1.483-.782 0-1.416-.665-1.416-1.483.003-.819.637-1.483 1.416-1.483z" fill="#FFB300"/></svg>