<svg width="24" height="24" fill="none" xmlns="http://www.w3.org/2000/svg"><path opacity=".1" d="M18.809 7.197l-.005 11.024a.927.927 0 01-.912.934H1.212c-.5 0-.912-.42-.912-.934V1.037c0-.514.411-.934.912-.934h11.137c.5 0 .911.42.911.934v2.766c0 1.038.774 1.863 1.796 1.863h2.842c.5 0 .911.42.911.934v.597z" fill="#64B5F6"/><path d="M23.36 7.2l-4.216-4.334a.83.83 0 00-.595-.257H4.715c-.928 0-1.67.776-1.67 1.732v17.741c0 .956.748 1.732 1.67 1.732h17.212c.927 0 1.665-.765 1.67-1.71l.016-14.286a.945.945 0 00-.253-.618zm-4.927-3.433l3.9 4.04c.163.169.047.453-.18.453h-3.125c-.57 0-1.033-.48-1.033-1.07V3.952c0-.24.28-.355.438-.186zm4.147 6.985l-.005 11.025c0 .513-.41.934-.911.934H4.984a.927.927 0 01-.912-.934V4.592c0-.513.41-.934.911-.934H16.12c.5 0 .912.42.912.934V7.36c0 1.038.774 1.862 1.796 1.862h2.841c.5 0 .911.42.911.934v.597z" fill="#64B5F6"/><path d="M16.808 13.693c-.331 0-.577.122-.743.36-.171.245-.252.6-.252 1.077 0 .476.08.837.246 1.075.166.245.412.361.744.361.663 0 .99-.477.99-1.436-.006-.954-.332-1.437-.985-1.437zm-4.08.055h-.439v2.774h.358c.797 0 1.193-.466 1.193-1.403 0-.916-.374-1.37-1.112-1.37z" fill="#64B5F6"/><path d="M10.754 12.318a.681.681 0 00-.668.693v4.343c0 .382.299.693.668.693h11.83v-5.73h-11.83zm3.396 4.392c-.369.372-.898.56-1.583.56H11.46v-4.265h1.225c.636 0 1.133.183 1.486.555.354.372.53.882.53 1.536-.005.705-.182 1.243-.55 1.614zm4.027.05c-.32.383-.78.566-1.38.566-.599 0-1.059-.189-1.38-.566-.32-.377-.48-.92-.48-1.636 0-.71.16-1.248.48-1.625.322-.372.781-.56 1.38-.56.6 0 1.06.188 1.38.566.316.377.476.915.476 1.625.006.71-.155 1.248-.476 1.63zm2.557-.183c.272 0 .604-.072.994-.222v.76c-.32.144-.679.222-1.07.222-.566 0-1.005-.189-1.304-.566-.305-.377-.45-.915-.45-1.62 0-.443.076-.831.225-1.164.15-.333.359-.588.637-.765.278-.178.599-.267.973-.267.38 0 .76.1 1.145.3l-.268.738c-.15-.072-.289-.145-.438-.2a1.224 1.224 0 00-.434-.083.808.808 0 00-.722.382c-.17.255-.256.61-.256 1.065-.011.943.31 1.42.968 1.42z" fill="#64B5F6"/></svg>